<?xml version="1.0" encoding="UTF-8"?>
<svg width="800" height="280" viewBox="0 0 800 280" fill="none" xmlns="http://www.w3.org/2000/svg" role="img" aria-label="Offshore wind hero illustration">
  <defs>
    <linearGradient id="sky" x1="0" y1="0" x2="0" y2="1">
      <stop offset="0%" stop-color="#5a8ec5" stop-opacity="0.20"/>
      <stop offset="100%" stop-color="#5a8ec5" stop-opacity="0"/>
    </linearGradient>
    <linearGradient id="wave" x1="0" y1="0" x2="1" y2="0">
      <stop offset="0%" stop-color="#60a5fa" stop-opacity="0.35"/>
      <stop offset="100%" stop-color="#3a6ea5" stop-opacity="0.25"/>
    </linearGradient>
  </defs>
  <rect x="0" y="0" width="800" height="280" fill="url(#sky)"/>
  <!-- waves -->
  <g id="waves" transform="translate(0,0)">
    <path d="M0 210 C 80 190, 160 230, 240 210 C 320 190, 400 230, 480 210 C 560 190, 640 230, 720 210 L 800 230 L 800 280 L 0 280 Z" fill="url(#wave)"/>
    <path d="M0 230 C 100 210, 200 250, 300 230 C 400 210, 500 250, 600 230 C 700 210, 750 250, 800 240 L 800 280 L 0 280 Z" fill="#3a6ea5" fill-opacity="0.18"/>
    <animateTransform attributeName="transform"
                      type="translate"
                      values="0 0; -18 0; 0 0"
                      keyTimes="0; 0.5; 1"
                      dur="14s"
                      repeatCount="indefinite"
                      calcMode="spline"
                      keySplines="0.25 0.1 0.25 1; 0.25 0.1 0.25 1" />
    <animateTransform attributeName="transform"
                      type="translate"
                      additive="sum"
                      values="0 0; 0 3; 0 0"
                      keyTimes="0; 0.5; 1"
                      dur="12s"
                      repeatCount="indefinite"
                      calcMode="spline"
                      keySplines="0.25 0.1 0.25 1; 0.25 0.1 0.25 1" />
  </g>
  <!-- simple turbines -->
  <g transform="translate(520,108) scale(1)">
    <rect x="-2" y="40" width="4" height="90" fill="#bcd3ea"/>
    <g class="rotor">
      <circle cx="0" cy="40" r="5" fill="#bcd3ea"/>
      <path d="M0 40 L 44 40" stroke="#bcd3ea" stroke-width="3" stroke-linecap="round"/>
      <path d="M0 40 L -20 0" stroke="#bcd3ea" stroke-width="3" stroke-linecap="round"/>
      <path d="M0 40 L -24 76" stroke="#bcd3ea" stroke-width="3" stroke-linecap="round"/>
      <animateTransform attributeName="transform" type="rotate" from="0 0 40" to="360 0 40" dur="100s" begin="-0.6s" repeatCount="indefinite"/>
    </g>
  </g>
  <g transform="translate(640,108) scale(0.9)">
    <rect x="-2" y="40" width="4" height="90" fill="#bcd3ea"/>
    <g class="rotor">
      <circle cx="0" cy="40" r="5" fill="#bcd3ea"/>
      <path d="M0 40 L 44 40" stroke="#bcd3ea" stroke-width="3" stroke-linecap="round"/>
      <path d="M0 40 L -20 0" stroke="#bcd3ea" stroke-width="3" stroke-linecap="round"/>
      <path d="M0 40 L -24 76" stroke="#bcd3ea" stroke-width="3" stroke-linecap="round"/>
      <animateTransform attributeName="transform" type="rotate" from="0 0 40" to="360 0 40" dur="100s" begin="0s" repeatCount="indefinite"/>
    </g>
  </g>
</svg>
